<svg width="192" height="44" viewBox="0 0 192 44" fill="none" xmlns="http://www.w3.org/2000/svg">
  <defs>
    <linearGradient id="mc3LogoGrad" x1="0" y1="0" x2="44" y2="44" gradientUnits="userSpaceOnUse">
      <stop offset="0" stop-color="#00C48C"/>
      <stop offset="1" stop-color="#5B5EA6"/>
    </linearGradient>
  </defs>
  <rect x="0" y="0" width="44" height="44" rx="10" fill="url(#mc3LogoGrad)"/>
  <path d="M11.5 28V15.5H15.9L22 23.2L28.1 15.5H32.5V28H28.3V21.7L22 29.6L15.7 21.7V28H11.5Z" fill="white"/>
  <path d="M59.37 15.44C62.26 15.44 64.1 16.84 64.83 19.13H61.56C61.08 18.14 60.23 17.68 59.32 17.68C57.67 17.68 56.54 18.91 56.54 20.96C56.54 23.01 57.67 24.24 59.32 24.24C60.23 24.24 61.08 23.78 61.56 22.79H64.83C64.1 25.08 62.26 26.46 59.37 26.46C55.83 26.46 53.46 24.02 53.46 20.96C53.46 17.88 55.83 15.44 59.37 15.44Z" fill="white"/>
  <path d="M67.37 15.56H75.45V17.8H70.39V19.74H74.88V21.89H70.39V23.99H75.45V26.25H67.37V15.56Z" fill="white"/>
  <path d="M81.32 15.56H85.07C88.21 15.56 90.28 17.38 90.28 20.89C90.28 24.4 88.21 26.25 85.07 26.25H81.32V15.56ZM84.86 23.99C86.3 23.99 87.21 23.15 87.21 20.89C87.21 18.63 86.3 17.8 84.86 17.8H84.34V23.99H84.86Z" fill="white"/>
  <path d="M95.57 15.56H98.59V26.25H95.57V15.56Z" fill="white"/>
  <path d="M103.24 15.56H112.01V17.96H109.14V26.25H106.12V17.96H103.24V15.56Z" fill="white"/>
  <path d="M117.05 15.56H120.07V19.77H124.12V15.56H127.14V26.25H124.12V22.21H120.07V26.25H117.05V15.56Z" fill="white"/>
  <path d="M136.71 15.44C139.6 15.44 141.44 16.84 142.17 19.13H138.9C138.42 18.14 137.57 17.68 136.66 17.68C135.01 17.68 133.88 18.91 133.88 20.96C133.88 23.01 135.01 24.24 136.66 24.24C137.57 24.24 138.42 23.78 138.9 22.79H142.17C141.44 25.08 139.6 26.46 136.71 26.46C133.17 26.46 130.8 24.02 130.8 20.96C130.8 17.88 133.17 15.44 136.71 15.44Z" fill="white"/>
  <path d="M149.92 21.01L146.31 15.56H149.74L151.57 18.61L153.4 15.56H156.83L153.2 21.01L156.95 26.25H153.45L151.57 23.34L149.69 26.25H146.19L149.92 21.01Z" fill="white"/>
  <path d="M162.1 15.56H165.12V23.97H170.16V26.25H162.1V15.56Z" fill="white"/>
  <path d="M175.25 15.56H178.27V23.97H183.31V26.25H175.25V15.56Z" fill="white"/>
</svg>
